<?xml version="1.0" standalone="no"?>
<!DOCTYPE svg PUBLIC "-//W3C//DTD SVG 20010904//EN"
 "http://www.w3.org/TR/2001/REC-SVG-20010904/DTD/svg10.dtd">
<svg version="1.0" xmlns="http://www.w3.org/2000/svg"
 width="499.000000pt" height="499.000000pt" viewBox="0 0 499.000000 499.000000"
 preserveAspectRatio="xMidYMid meet">
<metadata>
Created by potrace 1.14, written by Peter Selinger 2001-2017
</metadata>
<g transform="translate(0.000000,499.000000) scale(0.100000,-0.100000)"
fill="#000000" stroke="none">
<path d="M2295 4923 c-171 -14 -497 -81 -590 -123 -11 -5 -58 -23 -105 -40
-440 -165 -860 -503 -1137 -915 -208 -309 -354 -693 -393 -1033 -6 -53 -13
-108 -16 -122 -16 -95 4 -519 31 -640 3 -14 8 -38 10 -55 37 -210 152 -515
276 -731 234 -407 569 -729 995 -954 234 -125 524 -217 784 -251 47 -6 110
-14 140 -18 65 -8 353 -7 425 2 28 4 75 9 105 12 30 3 62 8 70 10 8 3 33 7 54
10 109 13 348 85 501 151 646 275 1130 793 1364 1458 50 142 103 371 116 498
3 32 8 79 11 105 17 162 -2 503 -36 658 -60 268 -128 464 -232 663 -316 610
-885 1066 -1548 1241 -111 29 -207 49 -280 57 -19 2 -69 8 -110 12 -72 9 -350
12 -435 5z m-29 -4269 c-5 -18 -3 -24 5 -18 8 5 9 3 5 -5 -5 -7 -10 -10 -14
-7 -11 12 -31 -29 -20 -41 10 -12 -1 -18 -25 -14 -5 1 -5 -4 0 -11 4 -7 8 -16
8 -20 0 -3 4 -10 9 -15 5 -5 6 -3 2 5 -4 6 -2 12 3 12 6 0 11 -6 12 -12 1 -7
5 -2 9 12 7 21 8 22 9 5 1 -11 6 -27 12 -35 9 -13 10 -12 5 3 -4 11 0 17 12
18 10 0 12 3 5 6 -10 3 -10 7 0 18 7 7 16 10 21 7 5 -3 6 0 2 6 -4 6 -1 22 6
34 7 13 11 26 10 31 -1 4 7 7 18 7 11 0 20 6 21 13 0 9 2 9 6 -1 2 -7 -18 -48
-46 -93 -28 -44 -51 -83 -51 -86 0 -4 -7 -15 -17 -25 -16 -17 -17 -17 -36 -1
-11 10 -17 12 -13 6 4 -7 2 -13 -3 -13 -6 0 -11 8 -11 17 0 9 -3 13 -7 10 -3
-4 -13 -1 -21 6 -13 9 -14 9 -8 0 5 -9 2 -11 -8 -7 -9 3 -16 10 -16 14 0 4 22
41 49 82 27 41 52 85 56 97 9 30 18 26 11 -5z m235 -84 c-21 -22 -23 -19 -9
12 7 15 16 22 19 16 4 -6 -1 -18 -10 -28z m-31 -58 c0 -4 -5 -13 -12 -20 -9
-9 -8 -12 8 -13 10 -1 36 -2 56 -3 21 -1 40 -5 42 -7 3 -3 -13 -35 -35 -72
l-40 -67 -68 0 c-37 0 -70 3 -74 6 -8 8 82 154 99 161 8 3 11 9 8 14 -3 5 0 9
5 9 6 0 11 -4 11 -8z"/>
</g>
</svg>
